<svg width="20" height="19" viewBox="0 0 20 19" fill="none" xmlns="http://www.w3.org/2000/svg">
<path d="M10.3461 12.8461C10.9756 12.8461 11.5079 12.6285 11.9432 12.1933C12.3784 11.758 12.5961 11.2256 12.5961 10.5961V4.98075H15.4615V3.21152H11.7115V8.86538C11.5204 8.69231 11.3111 8.5625 11.0836 8.47595C10.856 8.38942 10.6102 8.34615 10.3461 8.34615C9.71662 8.34615 9.18425 8.56378 8.749 8.99903C8.31373 9.43429 8.0961 9.96666 8.0961 10.5961C8.0961 11.2256 8.31373 11.758 8.749 12.1933C9.18425 12.6285 9.71662 12.8461 10.3461 12.8461ZM6.05765 15.5C5.55252 15.5 5.12496 15.325 4.77498 14.975C4.42498 14.625 4.24998 14.1974 4.24998 13.6923V2.3077C4.24998 1.80257 4.42498 1.375 4.77498 1.025C5.12496 0.675 5.55252 0.5 6.05765 0.5H17.4422C17.9473 0.5 18.3749 0.675 18.7249 1.025C19.0749 1.375 19.2499 1.80257 19.2499 2.3077V13.6923C19.2499 14.1974 19.0749 14.625 18.7249 14.975C18.3749 15.325 17.9473 15.5 17.4422 15.5H6.05765ZM6.05765 14H17.4422C17.5191 14 17.5897 13.9679 17.6538 13.9038C17.7179 13.8397 17.7499 13.7692 17.7499 13.6923V2.3077C17.7499 2.23077 17.7179 2.16024 17.6538 2.09613C17.5897 2.03203 17.5191 1.99998 17.4422 1.99998H6.05765C5.98072 1.99998 5.9102 2.03203 5.8461 2.09613C5.78198 2.16024 5.74993 2.23077 5.74993 2.3077V13.6923C5.74993 13.7692 5.78198 13.8397 5.8461 13.9038C5.9102 13.9679 5.98072 14 6.05765 14ZM2.55768 18.9999C2.05256 18.9999 1.625 18.8249 1.275 18.4749C0.925 18.1249 0.75 17.6973 0.75 17.1922V4.3077H2.24998V17.1922C2.24998 17.2692 2.28202 17.3397 2.34613 17.4038C2.41024 17.4679 2.48076 17.5 2.55768 17.5H15.4422V18.9999H2.55768Z" fill="white"/>
</svg>
