<svg width="16" height="16" viewBox="0 0 16 16" fill="none" xmlns="http://www.w3.org/2000/svg">
<mask id="mask0_203_215" style="mask-type:alpha" maskUnits="userSpaceOnUse" x="0" y="0" width="16" height="16">
<rect width="16" height="16" fill="#D9D9D9"/>
</mask>
<g mask="url(#mask0_203_215)">
<path d="M7.99995 13.5C7.63884 13.5 7.3319 13.3736 7.07912 13.1208C6.82634 12.8681 6.69995 12.5611 6.69995 12.2C6.69995 11.8389 6.82634 11.5319 7.07912 11.2792C7.3319 11.0264 7.63884 10.9 7.99995 10.9C8.36106 10.9 8.66801 11.0264 8.92078 11.2792C9.17356 11.5319 9.29995 11.8389 9.29995 12.2C9.29995 12.5611 9.17356 12.8681 8.92078 13.1208C8.66801 13.3736 8.36106 13.5 7.99995 13.5ZM7.99995 9.3C7.63884 9.3 7.3319 9.17361 7.07912 8.92083C6.82634 8.66806 6.69995 8.36111 6.69995 8C6.69995 7.63889 6.82634 7.33194 7.07912 7.07917C7.3319 6.82639 7.63884 6.7 7.99995 6.7C8.36106 6.7 8.66801 6.82639 8.92078 7.07917C9.17356 7.33194 9.29995 7.63889 9.29995 8C9.29995 8.36111 9.17356 8.66806 8.92078 8.92083C8.66801 9.17361 8.36106 9.3 7.99995 9.3ZM7.99995 5.1C7.63884 5.1 7.3319 4.97361 7.07912 4.72083C6.82634 4.46806 6.69995 4.16111 6.69995 3.8C6.69995 3.43889 6.82634 3.13194 7.07912 2.87917C7.3319 2.62639 7.63884 2.5 7.99995 2.5C8.36106 2.5 8.66801 2.62639 8.92078 2.87917C9.17356 3.13194 9.29995 3.43889 9.29995 3.8C9.29995 4.16111 9.17356 4.46806 8.92078 4.72083C8.66801 4.97361 8.36106 5.1 7.99995 5.1Z" fill="white"/>
</g>
</svg>
