<svg width="23" height="18" viewBox="0 0 23 18" fill="none" xmlns="http://www.w3.org/2000/svg">
<path d="M3.5 18V8.625L1.7 10L0.5 8.4L11.5 0L22.5 8.4L21.3 9.975L19.5 8.625V18H3.5ZM7.5 12C7.21667 12 6.97917 11.9042 6.7875 11.7125C6.59583 11.5208 6.5 11.2833 6.5 11C6.5 10.7167 6.59583 10.4792 6.7875 10.2875C6.97917 10.0958 7.21667 10 7.5 10C7.78333 10 8.02083 10.0958 8.2125 10.2875C8.40417 10.4792 8.5 10.7167 8.5 11C8.5 11.2833 8.40417 11.5208 8.2125 11.7125C8.02083 11.9042 7.78333 12 7.5 12ZM11.5 12C11.2167 12 10.9792 11.9042 10.7875 11.7125C10.5958 11.5208 10.5 11.2833 10.5 11C10.5 10.7167 10.5958 10.4792 10.7875 10.2875C10.9792 10.0958 11.2167 10 11.5 10C11.7833 10 12.0208 10.0958 12.2125 10.2875C12.4042 10.4792 12.5 10.7167 12.5 11C12.5 11.2833 12.4042 11.5208 12.2125 11.7125C12.0208 11.9042 11.7833 12 11.5 12ZM15.5 12C15.2167 12 14.9792 11.9042 14.7875 11.7125C14.5958 11.5208 14.5 11.2833 14.5 11C14.5 10.7167 14.5958 10.4792 14.7875 10.2875C14.9792 10.0958 15.2167 10 15.5 10C15.7833 10 16.0208 10.0958 16.2125 10.2875C16.4042 10.4792 16.5 10.7167 16.5 11C16.5 11.2833 16.4042 11.5208 16.2125 11.7125C16.0208 11.9042 15.7833 12 15.5 12Z" fill="white"/>
</svg>
