<svg width="20" height="20" viewBox="0 0 20 20" fill="none" xmlns="http://www.w3.org/2000/svg">
<mask id="mask0_49_2222" style="mask-type:alpha" maskUnits="userSpaceOnUse" x="0" y="0" width="20" height="20">
<rect width="20" height="20" fill="#D9D9D9"/>
</mask>
<g mask="url(#mask0_49_2222)">
<path d="M15.9375 17L10.9583 12.0208C10.5417 12.3264 10.0848 12.566 9.58767 12.7396C9.09056 12.9132 8.56158 13 8.00073 13C6.61135 13 5.43056 12.5139 4.45833 11.5417C3.48611 10.5694 3 9.38889 3 8C3 6.61111 3.48611 5.43056 4.45833 4.45833C5.43056 3.48611 6.61111 3 8 3C9.38889 3 10.5694 3.48611 11.5417 4.45833C12.5139 5.43056 13 6.61135 13 8.00073C13 8.56158 12.9132 9.09056 12.7396 9.58767C12.566 10.0848 12.3264 10.5417 12.0208 10.9583L17 15.9375L15.9375 17ZM8 11.5C8.97222 11.5 9.79861 11.1597 10.4792 10.4792C11.1597 9.79861 11.5 8.97222 11.5 8C11.5 7.02778 11.1597 6.20139 10.4792 5.52083C9.79861 4.84028 8.97222 4.5 8 4.5C7.02778 4.5 6.20139 4.84028 5.52083 5.52083C4.84028 6.20139 4.5 7.02778 4.5 8C4.5 8.97222 4.84028 9.79861 5.52083 10.4792C6.20139 11.1597 7.02778 11.5 8 11.5Z" fill="white"/>
</g>
</svg>
